<svg width="27" height="25" viewBox="0 0 27 25" fill="none" xmlns="http://www.w3.org/2000/svg">
<path d="M22.5972 4.28559C20.1115 2.07615 16.8011 0.860962 13.283 0.860962C6.02157 0.860962 0.112719 6.10049 0.112719 12.5394C0.112719 14.5963 0.717842 16.6058 1.86876 18.3787L0 24.4283L6.98265 22.8028C8.9048 23.7339 11.0702 24.2231 13.2771 24.2231H13.283C20.5386 24.2231 26.578 18.9836 26.578 12.5447C26.578 9.42517 25.083 6.49503 22.5972 4.28559ZM13.283 22.2557C11.3134 22.2557 9.38534 21.7875 7.70642 20.9037L7.30894 20.6933L3.168 21.656L4.27146 18.0735L4.01043 17.7053C2.9129 16.1587 2.33744 14.3754 2.33744 12.5394C2.33744 7.18942 7.24961 2.83367 13.289 2.83367C16.2137 2.83367 18.9605 3.8437 21.0251 5.67964C23.0896 7.51558 24.3592 9.95122 24.3532 12.5447C24.3532 17.8999 19.3165 22.2557 13.283 22.2557ZM19.2868 14.9856C18.9605 14.8383 17.3409 14.1334 17.0384 14.0387C16.7358 13.9387 16.5163 13.8914 16.2968 14.186C16.0773 14.4806 15.4484 15.1329 15.2527 15.3328C15.0628 15.5274 14.867 15.5537 14.5408 15.4064C12.6067 14.549 11.3372 13.8756 10.0617 11.9345C9.7235 11.4189 10.3998 11.4557 11.0287 10.3405C11.1355 10.1459 11.0821 9.97753 10.999 9.83023C10.9159 9.68293 10.2574 8.2468 9.98453 7.66288C9.71757 7.09473 9.44467 7.17364 9.24296 7.16312C9.05312 7.1526 8.83361 7.1526 8.61411 7.1526C8.3946 7.1526 8.03865 7.22625 7.73609 7.51558C7.43352 7.81017 6.58517 8.51509 6.58517 9.95122C6.58517 11.3874 7.76575 12.7761 7.92593 12.9708C8.09204 13.1654 10.2456 16.1113 13.55 17.3791C15.6383 18.1788 16.457 18.2471 17.5011 18.1104C18.1359 18.0262 19.447 17.4054 19.7199 16.7216C19.9928 16.0377 19.9928 15.4538 19.9097 15.3328C19.8326 15.2013 19.6131 15.1276 19.2868 14.9856Z" fill="white"/>
</svg>
