<svg width="27" height="30" viewBox="0 0 27 30" fill="none" xmlns="http://www.w3.org/2000/svg">
<g clip-path="url(#clip0_140_151)">
<path d="M24.6795 1.8649H1.89249C0.848359 1.8649 0 2.70993 0 3.74728V26.0911C0 27.1285 0.848359 27.9735 1.89249 27.9735H24.6795C25.7237 27.9735 26.578 27.1285 26.578 26.0911V3.74728C26.578 2.70993 25.7237 1.8649 24.6795 1.8649ZM8.03271 24.2437H4.09348V11.7838H8.03865V24.2437H8.03271ZM6.0631 10.0821C4.79946 10.0821 3.77905 9.07391 3.77905 7.83841C3.77905 6.60291 4.79946 5.5947 6.0631 5.5947C7.32081 5.5947 8.34714 6.60291 8.34714 7.83841C8.34714 9.07974 7.32674 10.0821 6.0631 10.0821ZM22.7989 24.2437H18.8597V18.1828C18.8597 16.7375 18.83 14.8784 16.8129 14.8784C14.7603 14.8784 14.4458 16.4519 14.4458 18.0779V24.2437H10.5066V11.7838H14.2857V13.4856H14.339C14.867 12.5065 16.1544 11.475 18.0706 11.475C22.0573 11.475 22.7989 14.0567 22.7989 17.4135V24.2437Z" fill="white"/>
</g>
<defs>
<clipPath id="clip0_140_151">
<rect width="26.578" height="29.8384" fill="white"/>
</clipPath>
</defs>
</svg>
