<svg width="35" height="25" viewBox="0 0 35 25" fill="none" xmlns="http://www.w3.org/2000/svg">
<path d="M2.36563 24.9049H7.88543V12.0784L0 6.41971V22.6414C0 23.8939 1.06059 24.9049 2.36563 24.9049Z" fill="white"/>
<path d="M26.8104 24.9049H32.3301C33.6393 24.9049 34.6958 23.8901 34.6958 22.6414V6.41971L26.8104 12.0784" fill="white"/>
<path d="M26.8104 2.26992V12.0784L34.6958 6.41966V3.40167C34.6958 0.602475 31.3564 -0.993289 29.0183 0.685469" fill="#AAAAAA"/>
<path d="M7.88544 12.0783V2.26981L17.348 9.06028L26.8104 2.26981V12.0783L17.348 18.8688" fill="#AAAAAA"/>
<path d="M0 3.40167V6.41966L7.88543 12.0784V2.26992L5.67752 0.685469C3.33554 -0.993289 0 0.602475 0 3.40167Z" fill="#AAAAAA"/>
</svg>
