<svg width="47" height="81" viewBox="0 0 47 81" fill="none" xmlns="http://www.w3.org/2000/svg">
<g clip-path="url(#clip0_140_75)">
<path fill-rule="evenodd" clip-rule="evenodd" d="M5.24712 16.3213H41.7529V54.4746H5.24712V16.3213ZM22.4783 21.7793H25.8665V28.325C25.8665 28.9709 25.761 29.584 25.5633 30.1575C25.3589 30.7375 25.0425 31.2385 24.614 31.6736C24.179 32.1086 23.7307 32.4053 23.2561 32.5833C22.5969 32.8271 21.8059 32.9458 20.883 32.9458C20.3491 32.9458 19.769 32.9062 19.1362 32.8337C18.5034 32.7612 17.976 32.6096 17.5541 32.3921C17.1323 32.168 16.7433 31.8582 16.394 31.4429C16.038 31.0342 15.8007 30.6123 15.6689 30.1772C15.4579 29.4785 15.3525 28.8589 15.3525 28.3184V21.7727H18.7407V28.47C18.7407 29.0698 18.9055 29.5378 19.2351 29.874C19.5647 30.2102 20.0261 30.3816 20.6128 30.3816C21.1928 30.3816 21.6477 30.2168 21.9839 29.8806C22.3135 29.551 22.4783 29.083 22.4783 28.47V21.7793ZM28.2461 21.7793H31.6541V32.7612H28.2461V21.7793ZM8.21346 0H38.7865C41.0475 0 43.1108 0.922852 44.594 2.40601C46.0771 3.88916 47 5.95239 47 8.21338V72.7866C47 75.0476 46.0771 77.1108 44.594 78.594C43.1108 80.0771 41.0475 81 38.7865 81H8.21346C5.95245 81 3.8892 80.0771 2.40603 78.594C0.922861 77.1108 0 75.0476 0 72.7866V8.21338C0 5.95239 0.922861 3.88916 2.40603 2.40601C3.8892 0.922852 5.95245 0 8.21346 0ZM5.24712 61.3235H20.6853V66.3596H25.1084V61.3169H41.7595V66.3596H45.0356V11.7466H1.97097V66.3662H5.24712V61.3235ZM19.0769 74.4873C18.5429 74.4873 18.0815 74.0522 18.0815 73.4919C18.0815 72.958 18.5165 72.4966 19.0769 72.4966H28.1143C28.6482 72.4966 29.1097 72.9316 29.1097 73.4919C29.1097 74.0259 28.6746 74.4873 28.1143 74.4873H19.0769ZM23.5 4.2583C24.3767 4.2583 25.082 4.96362 25.082 5.84033C25.082 6.71704 24.3767 7.42236 23.5 7.42236C22.6233 7.42236 21.9179 6.71704 21.9179 5.84033C21.9179 4.96362 22.6233 4.2583 23.5 4.2583ZM45.0356 68.3306H1.97097V72.7603C1.97097 74.4873 2.6763 76.043 3.81669 77.157C4.95708 78.2974 6.51276 79.0027 8.21346 79.0027H38.7865C40.5136 79.0027 42.0693 78.2974 43.1833 77.157C44.3237 76.0166 45.029 74.4609 45.029 72.7603V68.3306H45.0356ZM1.97097 9.74927H45.0356V8.21338C45.0356 6.48633 44.3303 4.93066 43.1899 3.81665C42.0495 2.67627 40.4938 1.97095 38.7931 1.97095H8.21346C6.48639 1.97095 4.93072 2.67627 3.81669 3.81665C2.6763 4.95703 1.97097 6.5127 1.97097 8.21338V9.74927ZM19.1889 37.7974H22.4783V44.1519C22.4783 44.7781 22.3794 45.3779 22.1816 45.9316C21.9839 46.4919 21.6806 46.9797 21.2588 47.4016C20.8369 47.8235 20.4018 48.1135 19.9404 48.2849C19.301 48.5222 18.5297 48.6409 17.6332 48.6409C17.1125 48.6409 16.5456 48.6013 15.9325 48.5288C15.3195 48.4563 14.8053 48.3113 14.3966 48.0938C13.9813 47.8762 13.6056 47.573 13.2694 47.1775C12.9266 46.782 12.6959 46.3667 12.5641 45.9514C12.3597 45.2725 12.2609 44.6726 12.2609 44.1519V37.7974H15.5502V44.3035C15.5502 44.8835 15.715 45.3384 16.0314 45.6614C16.3544 45.991 16.8027 46.1558 17.3696 46.1558C17.9299 46.1558 18.3781 45.991 18.7011 45.6746C19.0175 45.3582 19.1823 44.8967 19.1823 44.3035V37.7974H19.1889ZM23.9219 37.7974H27.554L29.4459 41.0801L31.2784 37.7974H34.871L31.5553 42.9653L35.1808 48.4629H31.4696L29.3799 45.0352L27.2705 48.4629H23.5989L27.2771 42.906L23.9219 37.7974Z" fill="#7D7D7D"/>
</g>
<defs>
<clipPath id="clip0_140_75">
<rect width="47" height="81" fill="white"/>
</clipPath>
</defs>
</svg>
