<svg width="75" height="81" viewBox="0 0 75 81" fill="none" xmlns="http://www.w3.org/2000/svg">
<g clip-path="url(#clip0_140_88)">
<path fill-rule="evenodd" clip-rule="evenodd" d="M21.5698 13.2117H65.9729V37.8176H21.5698V13.2117ZM34.6802 29.7464H31.2195L30.7251 32.0044H27.6062L31.3293 18.2883H34.6741L38.3789 32.0044H35.1807L34.6802 29.7464ZM34.0332 26.7758L32.959 21.8514L31.8726 26.7838H34.0332V26.7758ZM39.8682 18.2963H44.4092C45.3003 18.2963 46.0266 18.4644 46.5759 18.8007C47.1252 19.137 47.583 19.6174 47.9431 20.25C48.3032 20.8826 48.5596 21.6112 48.7244 22.452C48.8892 23.2847 48.9685 24.1735 48.9685 25.1103C48.9685 26.5756 48.8464 27.7126 48.6084 28.5214C48.3704 29.3301 48.0347 30.0027 47.6074 30.5552C47.1802 31.0996 46.7224 31.468 46.228 31.6441C45.5566 31.8923 44.9524 32.0205 44.4092 32.0205H39.8682V18.2963ZM42.9199 21.395V28.8817H43.6707C44.3115 28.8817 44.7693 28.7856 45.0378 28.5854C45.3064 28.3852 45.52 28.0489 45.6726 27.5605C45.8252 27.0721 45.9045 26.2794 45.9045 25.1824C45.9045 23.7331 45.7336 22.7402 45.3918 22.2037C45.05 21.6673 44.4824 21.403 43.689 21.403H42.9199V21.395ZM50.531 27.4724L53.4302 27.2242C53.4912 27.8728 53.6194 28.3772 53.8147 28.7135C54.1321 29.266 54.5776 29.5463 55.1636 29.5463C55.5969 29.5463 55.9326 29.4021 56.1707 29.1219C56.4087 28.8416 56.5247 28.5053 56.5247 28.137C56.5247 27.7847 56.4148 27.4644 56.189 27.1842C55.9631 26.9039 55.4443 26.6397 54.6265 26.3915C53.2898 25.9751 52.3315 25.4226 51.7639 24.726C51.1902 24.0374 50.9033 23.1566 50.9033 22.0836C50.9033 21.379 51.0498 20.7144 51.3428 20.0899C51.6357 19.4573 52.0813 18.9689 52.6733 18.6085C53.2654 18.2482 54.0771 18.0721 55.1025 18.0721C56.366 18.0721 57.3303 18.4004 57.9895 19.0489C58.6548 19.6975 59.0454 20.7384 59.1736 22.1637L56.2988 22.4039C56.2256 21.7794 56.0608 21.331 55.8167 21.0507C55.5725 20.7705 55.2307 20.6263 54.8035 20.6263C54.4495 20.6263 54.1809 20.7304 53.9978 20.9386C53.8208 21.1468 53.7292 21.403 53.7292 21.6993C53.7292 21.9155 53.8025 22.1077 53.949 22.2838C54.0894 22.468 54.4312 22.6281 54.9683 22.7883C56.3049 23.1886 57.2571 23.589 57.8369 23.9973C58.4167 24.4057 58.8379 24.9101 59.1003 25.5187C59.3628 26.1192 59.491 26.7998 59.491 27.5525C59.491 28.4333 59.314 29.242 58.9661 29.9867C58.6121 30.7233 58.1238 31.2918 57.4951 31.6762C56.8665 32.0605 56.073 32.2527 55.1147 32.2527C53.4363 32.2527 52.2705 31.8043 51.6235 30.9075C50.9827 29.9947 50.6165 28.8577 50.531 27.4724ZM14.2944 73.4253C13.8855 75.2189 13.2996 76.6682 12.5855 77.7972H66.5833H66.6077C68.5547 77.653 70.0073 76.9724 70.9778 75.7634C71.9299 74.5783 72.4609 72.8087 72.5769 70.4626V3.17883H14.8682V14.0525V67.2838C14.8682 70.0062 14.8926 70.7989 14.2944 73.4253ZM8.02612 80.976C7.75146 81 7.4707 81 7.19604 80.984C6.08521 80.8959 4.99268 80.4475 4.00391 79.6868C1.83716 78.0133 0.164795 74.8105 0.012207 70.6228C0.00610352 70.5587 0 70.4867 0 70.4226V14.0525C0 13.1717 0.543213 12.4671 1.2085 12.4671H12.4512V1.58541C12.4512 0.704626 12.9944 0 13.6597 0H73.7915C74.4629 0 75 0.712633 75 1.58541V70.5027C75 70.5827 74.9939 70.6708 74.9878 70.7509C74.823 73.8737 74.0417 76.3158 72.644 78.0614C71.2524 79.7989 69.2871 80.7678 66.7419 80.96C66.6931 80.968 66.6382 80.976 66.5833 80.976H8.02612ZM7.35474 77.8212C7.41577 77.8052 7.48291 77.7972 7.55005 77.7972H7.9895C8.47168 77.7331 8.94165 77.5569 9.3811 77.2527C12.0728 75.403 12.4451 70.887 12.4451 67.3078V15.6379H2.4231V70.4146C2.4231 70.4306 2.4231 70.4546 2.4231 70.4706C2.53906 73.4813 3.71704 75.7714 5.23682 76.9484C5.896 77.4609 6.61621 77.7571 7.33032 77.8132L7.35474 77.8212ZM21.8506 48.7233C21.1792 48.7233 20.6421 48.0107 20.6421 47.1379C20.6421 46.2571 21.1853 45.5525 21.8506 45.5525H40.3198C40.9912 45.5525 41.5283 46.2651 41.5283 47.1379C41.5283 48.0187 40.9851 48.7233 40.3198 48.7233H21.8506ZM45.6116 48.7233C44.9402 48.7233 44.397 48.0107 44.397 47.1299C44.397 46.2491 44.9402 45.5365 45.6116 45.5365H65.5273C66.1987 45.5365 66.7419 46.2491 66.7419 47.1299C66.7419 48.0107 66.1987 48.7233 65.5273 48.7233H45.6116ZM45.6116 57.9395C44.9402 57.9395 44.397 57.2269 44.397 56.3461C44.397 55.4653 44.9402 54.7527 45.6116 54.7527H65.5273C66.1987 54.7527 66.7419 55.4653 66.7419 56.3461C66.7419 57.2269 66.1987 57.9395 65.5273 57.9395H45.6116ZM45.6116 67.1557C44.9402 67.1557 44.397 66.4431 44.397 65.5623C44.397 64.6815 44.9402 63.9689 45.6116 63.9689H65.5273C66.1987 63.9689 66.7419 64.6815 66.7419 65.5623C66.7419 66.4431 66.1987 67.1557 65.5273 67.1557H45.6116ZM21.8506 67.1557C21.1792 67.1557 20.6421 66.4431 20.6421 65.5703C20.6421 64.6895 21.1853 63.9849 21.8506 63.9849H40.3198C40.9912 63.9849 41.5283 64.6975 41.5283 65.5703C41.5283 66.4511 40.9851 67.1557 40.3198 67.1557H21.8506ZM22.4365 57.9395C21.7651 57.9395 21.228 57.2269 21.228 56.3541C21.228 55.4733 21.7712 54.7687 22.4365 54.7687H40.9058C41.5771 54.7687 42.1143 55.4813 42.1143 56.3541C42.1143 57.2349 41.571 57.9395 40.9058 57.9395H22.4365Z" fill="#7D7D7D"/>
</g>
<defs>
<clipPath id="clip0_140_88">
<rect width="75" height="81" fill="white"/>
</clipPath>
</defs>
</svg>
