<svg width="30" height="23" viewBox="0 0 30 23" fill="none" xmlns="http://www.w3.org/2000/svg">
<path d="M26.9163 5.62401C26.9354 5.87082 26.9354 6.11768 26.9354 6.36449C26.9354 13.8925 20.7488 22.5666 9.44166 22.5666C5.95813 22.5666 2.7221 21.6322 0 20.0103C0.494943 20.0631 0.970785 20.0808 1.48477 20.0808C4.3591 20.0808 7.00509 19.1817 9.11804 17.6478C6.41499 17.5949 4.14974 15.9553 3.36927 13.6986C3.75001 13.7515 4.1307 13.7868 4.53049 13.7868C5.0825 13.7868 5.63457 13.7162 6.1485 13.5929C3.33124 13.0639 1.21823 10.772 1.21823 8.00409V7.9336C2.03673 8.35672 2.98859 8.62117 3.9974 8.65639C2.3413 7.63382 1.25631 5.88845 1.25631 3.91386C1.25631 2.85607 1.56083 1.88641 2.09386 1.04015C5.12053 4.49567 9.67006 6.75229 14.7715 6.99916C14.6764 6.57603 14.6193 6.13532 14.6193 5.69456C14.6193 2.55635 17.3604 0 20.7678 0C22.5381 0 24.137 0.687575 25.2602 1.79828C26.6497 1.55147 27.9822 1.07543 29.1625 0.423127C28.7055 1.74542 27.7348 2.85612 26.4594 3.56128C27.6967 3.43793 28.896 3.12052 30 2.67981C29.1626 3.80809 28.1156 4.81297 26.9163 5.62401Z" fill="white"/>
</svg>
