<svg width="74" height="74" viewBox="0 0 74 74" fill="none" xmlns="http://www.w3.org/2000/svg">
<path d="M49.8516 62.0939C49.4681 61.8606 49.134 61.5478 48.8685 61.1688C48.7458 60.994 48.6422 60.8091 48.5564 60.6181H4.98384V17.6706H64.1273V45.7138C65.3899 45.8278 66.4493 46.6571 66.8941 47.7927C67.288 47.5768 67.7269 47.4434 68.1883 47.4027C68.5004 47.3755 68.8103 47.3949 69.111 47.4543V6.97143C69.111 4.68128 67.2482 2.81812 64.9582 2.81812H4.15314C1.86317 2.81812 0 4.68128 0 6.97143V61.449C0 63.7391 1.86317 65.6021 4.15314 65.6021H49.4731C49.1194 64.8859 49.0355 64.0774 49.2436 63.2996C49.3636 62.8522 49.5712 62.4441 49.8516 62.0939ZM59.5666 9.79235C59.5666 8.94544 60.2531 8.25871 61.1 8.25871H62.6335C63.4806 8.25871 64.167 8.94526 64.167 9.79235V11.5304C64.167 12.3773 63.4804 13.0639 62.6335 13.0639H61.1C60.2529 13.0639 59.5666 12.3773 59.5666 11.5304V9.79235ZM52.4358 9.79235C52.4358 8.94544 53.1224 8.25871 53.9693 8.25871H55.5029C56.35 8.25871 57.0364 8.94526 57.0364 9.79235V11.5304C57.0364 12.3773 56.3499 13.0639 55.5029 13.0639H53.9693C53.1224 13.0639 52.4358 12.3773 52.4358 11.5304V9.79235ZM45.305 9.79235C45.305 8.94544 45.9917 8.25871 46.8384 8.25871H48.3719C49.219 8.25871 49.9055 8.94526 49.9055 9.79235V11.5304C49.9055 12.3773 49.219 13.0639 48.3719 13.0639H46.8384C45.9917 13.0639 45.305 12.3773 45.305 11.5304V9.79235Z" fill="#7D7D7D"/>
<path d="M73.9901 59.1692L73.5293 56.5559C73.4671 56.204 73.1318 55.9689 72.7795 56.031L70.4555 56.4405C70.1765 55.7858 69.8202 55.1726 69.3973 54.6113L70.9153 52.8019C71.0256 52.6708 71.0793 52.5007 71.0645 52.3296C71.0494 52.1585 70.9669 52.0006 70.8354 51.8901L68.8029 50.1843C68.6715 50.074 68.5011 50.0205 68.3301 50.0354C68.159 50.0504 68.0011 50.1327 67.8908 50.2642L66.3743 52.0722C65.7517 51.755 65.0857 51.5104 64.3881 51.349V48.989C64.3881 48.6317 64.0982 48.3416 63.7408 48.3416H61.087C60.7298 48.3416 60.4397 48.6317 60.4397 48.989V51.349C59.7417 51.5102 59.0765 51.755 58.4536 52.0722L56.9367 50.2643C56.7069 49.9905 56.2987 49.9549 56.0247 50.1845L53.992 51.8901C53.8606 52.0006 53.7783 52.1585 53.7631 52.3296C53.7483 52.5007 53.8019 52.671 53.9122 52.8024L55.4303 54.6115C55.0081 55.1726 54.6511 55.7862 54.3721 56.4407L52.0482 56.031C51.6968 55.9691 51.3607 56.204 51.2983 56.5559L50.8377 59.1692C50.8079 59.3382 50.8465 59.512 50.9447 59.6528C51.0435 59.7936 51.1931 59.8893 51.3623 59.9191L53.688 60.3289C53.7259 61.0495 53.8514 61.7466 54.0534 62.4104L52.0092 63.5902C51.8605 63.6757 51.7521 63.8174 51.7075 63.983C51.6631 64.1489 51.6866 64.3254 51.7722 64.4742L53.099 66.7722C53.1844 66.921 53.3261 67.0293 53.4917 67.0737C53.5469 67.0885 53.6031 67.0958 53.6593 67.0958C53.7719 67.0958 53.8835 67.0665 53.9829 67.0091L56.0286 65.8279C56.5097 66.3433 57.0528 66.8001 57.6463 67.1863L56.8385 69.4055C56.78 69.5669 56.7876 69.7449 56.8602 69.9005C56.9328 70.0561 57.0641 70.1764 57.2253 70.2349L59.7185 71.1423C59.79 71.1684 59.8651 71.1818 59.94 71.1818C60.0334 71.1818 60.1273 71.1615 60.2138 71.121C60.3694 71.0485 60.4894 70.9171 60.5481 70.7557L61.3557 68.5365C61.702 68.5785 62.0544 68.6002 62.412 68.6002C62.7695 68.6002 63.122 68.5781 63.4682 68.5365L64.276 70.7557C64.3345 70.9171 64.4551 71.0485 64.6103 71.121C64.6967 71.1613 64.7902 71.1818 64.8842 71.1818C64.9589 71.1818 65.0339 71.1687 65.1055 71.1423L67.599 70.2349C67.7599 70.1764 67.8913 70.0557 67.9638 69.9005C68.0364 69.7449 68.0441 69.5669 67.9854 69.4055L67.1777 67.1867C67.7706 66.8004 68.3137 66.3433 68.7953 65.8282L70.8411 67.0094C70.9403 67.0665 71.052 67.0961 71.1646 67.0961C71.2207 67.0961 71.2774 67.0885 71.3322 67.0741C71.498 67.0297 71.6393 66.921 71.725 66.7726L73.0517 64.4742C73.1374 64.3258 73.1608 64.1489 73.1164 63.983C73.0718 63.8177 72.9635 63.6761 72.8147 63.5902L70.7709 62.4108C70.9729 61.7468 71.098 61.0497 71.1359 60.3293L73.4616 59.9192C73.6308 59.8895 73.7809 59.7938 73.8793 59.653C73.9813 59.512 74.0199 59.3382 73.9901 59.1692ZM62.4141 63.322C60.4484 63.322 58.8545 61.7281 58.8545 59.7622C58.8545 57.7963 60.4485 56.2026 62.4141 56.2026C64.38 56.2026 65.9739 57.7963 65.9739 59.7622C65.9739 61.7281 64.38 63.322 62.4141 63.322Z" fill="#7D7D7D"/>
<path d="M29.0224 41.4773C29.0224 40.6399 28.5317 39.8707 27.772 39.5179L20.8193 36.2874L27.7722 33.0566C28.5317 32.7035 29.0224 31.9345 29.0224 31.0974V31.0412C29.0224 30.2993 28.649 29.6182 28.0242 29.2201C27.6784 28.9993 27.2758 28.8825 26.8601 28.8825C26.5467 28.8825 26.2322 28.9514 25.9508 29.0822L14.8352 34.2512C14.0759 34.6044 13.5854 35.3734 13.5854 36.2102V36.3648C13.5854 37.2006 14.0757 37.9691 14.8354 38.324L25.952 43.4936C26.2394 43.6266 26.5455 43.6941 26.8616 43.6941C27.2736 43.6941 27.6751 43.5771 28.0242 43.3551C28.6494 42.9554 29.0226 42.2748 29.0226 41.5338L29.0224 41.4773Z" fill="#7D7D7D"/>
<path d="M39.9898 23.6155C39.5843 23.0604 38.9321 22.7291 38.2451 22.7291H38.1897C37.2463 22.7291 36.4191 23.3327 36.1317 24.2298L28.808 46.9219C28.5995 47.5771 28.7169 48.2987 29.1218 48.8537C29.5273 49.4084 30.1795 49.7399 30.8666 49.7399H30.9221C31.8652 49.7399 32.6919 49.1361 32.9789 48.2392L40.3017 25.5488C40.5121 24.8942 40.3955 24.1715 39.9898 23.6155Z" fill="#7D7D7D"/>
<path d="M54.2758 34.251L43.16 29.082C42.8795 28.9516 42.5655 28.8827 42.2521 28.8827C41.8366 28.8827 41.4338 28.9992 41.0882 29.2196C40.4623 29.6184 40.0889 30.2993 40.0889 31.0412V31.0974C40.0889 31.9338 40.5793 32.703 41.3395 33.0575L48.2921 36.2876L41.3393 39.5179C40.5796 39.8707 40.0889 40.6399 40.0889 41.4773V41.5338C40.0889 42.2748 40.4623 42.9552 41.0879 43.3552C41.4357 43.5769 41.8375 43.6941 42.25 43.6941C42.5658 43.6941 42.8715 43.6266 43.1609 43.493L54.2772 38.3235C55.0361 37.9694 55.5262 37.2008 55.5262 36.365V36.2104C55.5257 35.3734 55.0353 34.6044 54.2758 34.251Z" fill="#7D7D7D"/>
</svg>
